<?xml version="1.0" standalone="no"?><!DOCTYPE svg PUBLIC "-//W3C//DTD SVG 1.1//EN" "http://www.w3.org/Graphics/SVG/1.1/DTD/svg11.dtd"><svg width="100%" height="100%" viewBox="0 0 32 32" version="1.1" xmlns="http://www.w3.org/2000/svg" xmlns:xlink="http://www.w3.org/1999/xlink" xml:space="preserve" style="fill-rule:evenodd;clip-rule:evenodd;stroke-linejoin:round;stroke-miterlimit:1.41421;"><g><path d="M30,0c1.104,0 2,0.895 2,2l0,28c0,1.104 -0.896,2 -2,2l-28,0c-1.104,0 -2,-0.896 -2,-2l0,-28c0,-1.105 0.896,-2 2,-2l28,0Z" style="fill:#469fcc;fill-rule:nonzero;"/><path d="M0,2l0,28c0,1.104 0.896,2 2,2l28,0c1.104,0 2,-0.896 2,-2l0,-28c0,-1.105 -0.896,-2 -2,-2l-28,0c-1.104,0 -2,0.895 -2,2ZM30,2l0,28l-28,0l0,-28l28,0Z" style="fill:#469fcc;fill-opacity:0.15;fill-rule:nonzero;"/><path d="M14.578,10.607l-7.033,7.031c-0.781,0.781 -0.679,1.947 0.103,2.727c0.781,0.781 1.983,0.844 2.765,0.062l5.59,-5.406l5.555,5.391c0.781,0.781 2.062,0.797 2.843,0.016c0.781,-0.779 0.813,-2.016 0.032,-2.797l-7.025,-7.023c-0.782,-0.782 -2.05,-0.782 -2.83,-0.001Z" style="fill:#fff;fill-rule:nonzero;"/></g></svg>
